<?xml version="1.0" encoding="UTF-8" standalone="no"?>
<!DOCTYPE svg PUBLIC "-//W3C//DTD SVG 1.1//EN"
 "http://www.w3.org/Graphics/SVG/1.1/DTD/svg11.dtd">
<!-- Generated by graphviz version 2.40.1 (20161225.0304)
 -->
<!-- Title: %3 Pages: 1 -->
<svg width="1074pt" height="404pt"
 viewBox="0.00 0.00 1073.96 404.00" xmlns="http://www.w3.org/2000/svg" xmlns:xlink="http://www.w3.org/1999/xlink">
<g id="graph0" class="graph" transform="scale(1 1) rotate(0) translate(4 400)">
<title>%3</title>
<polygon fill="#ffffff" stroke="transparent" points="-4,4 -4,-400 1069.959,-400 1069.959,4 -4,4"/>
<!-- [root] google_compute_instance.firstserver -->
<g id="node1" class="node">
<title>[root] google_compute_instance.firstserver</title>
<polygon fill="none" stroke="#000000" points="419.4993,-252 198.1667,-252 198.1667,-216 419.4993,-216 419.4993,-252"/>
<text text-anchor="middle" x="308.833" y="-229.8" font-family="Times,serif" font-size="14.00" fill="#000000">google_compute_instance.firstserver</text>
</g>
<!-- [root] google_compute_subnetwork.dev&#45;subnet -->
<g id="node3" class="node">
<title>[root] google_compute_subnetwork.dev&#45;subnet</title>
<polygon fill="none" stroke="#000000" points="458.8959,-180 212.7701,-180 212.7701,-144 458.8959,-144 458.8959,-180"/>
<text text-anchor="middle" x="335.833" y="-157.8" font-family="Times,serif" font-size="14.00" fill="#000000">google_compute_subnetwork.dev&#45;subnet</text>
</g>
<!-- [root] google_compute_instance.firstserver&#45;&gt;[root] google_compute_subnetwork.dev&#45;subnet -->
<g id="edge1" class="edge">
<title>[root] google_compute_instance.firstserver&#45;&gt;[root] google_compute_subnetwork.dev&#45;subnet</title>
<path fill="none" stroke="#000000" d="M315.6462,-215.8314C318.5974,-207.9617 322.1188,-198.5712 325.388,-189.8533"/>
<polygon fill="#000000" stroke="#000000" points="328.6939,-191.0055 328.928,-180.4133 322.1396,-188.5476 328.6939,-191.0055"/>
</g>
<!-- [root] google_compute_network.our_development_network -->
<g id="node2" class="node">
<title>[root] google_compute_network.our_development_network</title>
<polygon fill="none" stroke="#000000" points="727.8685,-108 411.7975,-108 411.7975,-72 727.8685,-72 727.8685,-108"/>
<text text-anchor="middle" x="569.833" y="-85.8" font-family="Times,serif" font-size="14.00" fill="#000000">google_compute_network.our_development_network</text>
</g>
<!-- [root] provider.google -->
<g id="node8" class="node">
<title>[root] provider.google</title>
<polygon fill="none" stroke="#000000" points="244.833,-36 151.5466,-18 244.833,0 338.1194,-18 244.833,-36"/>
<text text-anchor="middle" x="244.833" y="-13.8" font-family="Times,serif" font-size="14.00" fill="#000000">provider.google</text>
</g>
<!-- [root] google_compute_network.our_development_network&#45;&gt;[root] provider.google -->
<g id="edge2" class="edge">
<title>[root] google_compute_network.our_development_network&#45;&gt;[root] provider.google</title>
<path fill="none" stroke="#000000" d="M488.2413,-71.9243C428.8356,-58.7637 350.0618,-41.3122 298.4426,-29.8766"/>
<polygon fill="#000000" stroke="#000000" points="299.0149,-26.4186 288.4946,-27.6727 297.5008,-33.2529 299.0149,-26.4186"/>
</g>
<!-- [root] var.network_name -->
<g id="node10" class="node">
<title>[root] var.network_name</title>
<polygon fill="none" stroke="#000000" points="623.6369,-36 510.0291,-36 510.0291,0 629.6369,0 629.6369,-30 623.6369,-36"/>
<polyline fill="none" stroke="#000000" points="623.6369,-36 623.6369,-30 "/>
<polyline fill="none" stroke="#000000" points="629.6369,-30 623.6369,-30 "/>
<text text-anchor="middle" x="569.833" y="-13.8" font-family="Times,serif" font-size="14.00" fill="#000000">var.network_name</text>
</g>
<!-- [root] google_compute_network.our_development_network&#45;&gt;[root] var.network_name -->
<g id="edge3" class="edge">
<title>[root] google_compute_network.our_development_network&#45;&gt;[root] var.network_name</title>
<path fill="none" stroke="#000000" d="M569.833,-71.8314C569.833,-64.131 569.833,-54.9743 569.833,-46.4166"/>
<polygon fill="#000000" stroke="#000000" points="573.3331,-46.4132 569.833,-36.4133 566.3331,-46.4133 573.3331,-46.4132"/>
</g>
<!-- [root] google_compute_subnetwork.dev&#45;subnet&#45;&gt;[root] google_compute_network.our_development_network -->
<g id="edge4" class="edge">
<title>[root] google_compute_subnetwork.dev&#45;subnet&#45;&gt;[root] google_compute_network.our_development_network</title>
<path fill="none" stroke="#000000" d="M394.579,-143.9243C426.9855,-133.9531 467.3969,-121.5188 501.245,-111.104"/>
<polygon fill="#000000" stroke="#000000" points="502.5343,-114.3693 511.0628,-108.0831 500.4757,-107.6788 502.5343,-114.3693"/>
</g>
<!-- [root] var.gcp_ip_cidr_range -->
<g id="node9" class="node">
<title>[root] var.gcp_ip_cidr_range</title>
<polygon fill="none" stroke="#000000" points="253.403,-108 118.263,-108 118.263,-72 259.403,-72 259.403,-102 253.403,-108"/>
<polyline fill="none" stroke="#000000" points="253.403,-108 253.403,-102 "/>
<polyline fill="none" stroke="#000000" points="259.403,-102 253.403,-102 "/>
<text text-anchor="middle" x="188.833" y="-85.8" font-family="Times,serif" font-size="14.00" fill="#000000">var.gcp_ip_cidr_range</text>
</g>
<!-- [root] google_compute_subnetwork.dev&#45;subnet&#45;&gt;[root] var.gcp_ip_cidr_range -->
<g id="edge5" class="edge">
<title>[root] google_compute_subnetwork.dev&#45;subnet&#45;&gt;[root] var.gcp_ip_cidr_range</title>
<path fill="none" stroke="#000000" d="M298.7387,-143.8314C279.3405,-134.3302 255.416,-122.6121 234.8468,-112.5374"/>
<polygon fill="#000000" stroke="#000000" points="236.1808,-109.2935 225.6606,-108.038 233.1017,-115.5799 236.1808,-109.2935"/>
</g>
<!-- [root] var.subnet_names -->
<g id="node12" class="node">
<title>[root] var.subnet_names</title>
<polygon fill="none" stroke="#000000" points="387.7608,-108 277.9053,-108 277.9053,-72 393.7608,-72 393.7608,-102 387.7608,-108"/>
<polyline fill="none" stroke="#000000" points="387.7608,-108 387.7608,-102 "/>
<polyline fill="none" stroke="#000000" points="393.7608,-102 387.7608,-102 "/>
<text text-anchor="middle" x="335.833" y="-85.8" font-family="Times,serif" font-size="14.00" fill="#000000">var.subnet_names</text>
</g>
<!-- [root] google_compute_subnetwork.dev&#45;subnet&#45;&gt;[root] var.subnet_names -->
<g id="edge6" class="edge">
<title>[root] google_compute_subnetwork.dev&#45;subnet&#45;&gt;[root] var.subnet_names</title>
<path fill="none" stroke="#000000" d="M335.833,-143.8314C335.833,-136.131 335.833,-126.9743 335.833,-118.4166"/>
<polygon fill="#000000" stroke="#000000" points="339.3331,-118.4132 335.833,-108.4133 332.3331,-118.4133 339.3331,-118.4132"/>
</g>
<!-- [root] google_container_cluster.abc -->
<g id="node4" class="node">
<title>[root] google_container_cluster.abc</title>
<polygon fill="none" stroke="#000000" points="179.4993,-252 .1667,-252 .1667,-216 179.4993,-216 179.4993,-252"/>
<text text-anchor="middle" x="89.833" y="-229.8" font-family="Times,serif" font-size="14.00" fill="#000000">google_container_cluster.abc</text>
</g>
<!-- [root] google_container_cluster.abc&#45;&gt;[root] provider.google -->
<g id="edge7" class="edge">
<title>[root] google_container_cluster.abc&#45;&gt;[root] provider.google</title>
<path fill="none" stroke="#000000" d="M86.4369,-215.7586C81.472,-183.2412 76.0669,-114.6759 108.833,-72 126.324,-49.219 154.8907,-36.0276 181.3391,-28.3988"/>
<polygon fill="#000000" stroke="#000000" points="182.5794,-31.6907 191.3445,-25.7389 180.7809,-24.9257 182.5794,-31.6907"/>
</g>
<!-- [root] output.gcp_ip_cidr_range -->
<g id="node5" class="node">
<title>[root] output.gcp_ip_cidr_range</title>
<polygon fill="none" stroke="#000000" points="592.0715,-252 437.5945,-252 437.5945,-216 598.0715,-216 598.0715,-246 592.0715,-252"/>
<polyline fill="none" stroke="#000000" points="592.0715,-252 592.0715,-246 "/>
<polyline fill="none" stroke="#000000" points="598.0715,-246 592.0715,-246 "/>
<text text-anchor="middle" x="517.833" y="-229.8" font-family="Times,serif" font-size="14.00" fill="#000000">output.gcp_ip_cidr_range</text>
</g>
<!-- [root] output.gcp_ip_cidr_range&#45;&gt;[root] google_compute_subnetwork.dev&#45;subnet -->
<g id="edge14" class="edge">
<title>[root] output.gcp_ip_cidr_range&#45;&gt;[root] google_compute_subnetwork.dev&#45;subnet</title>
<path fill="none" stroke="#000000" d="M471.9067,-215.8314C447.2407,-206.0734 416.6639,-193.977 390.747,-183.7242"/>
<polygon fill="#000000" stroke="#000000" points="392.0154,-180.4621 381.429,-180.038 389.4403,-186.9713 392.0154,-180.4621"/>
</g>
<!-- [root] output.sample_output -->
<g id="node6" class="node">
<title>[root] output.sample_output</title>
<polygon fill="none" stroke="#000000" points="747.5472,-252 616.1188,-252 616.1188,-216 753.5472,-216 753.5472,-246 747.5472,-252"/>
<polyline fill="none" stroke="#000000" points="747.5472,-252 747.5472,-246 "/>
<polyline fill="none" stroke="#000000" points="753.5472,-246 747.5472,-246 "/>
<text text-anchor="middle" x="684.833" y="-229.8" font-family="Times,serif" font-size="14.00" fill="#000000">output.sample_output</text>
</g>
<!-- [root] output.you_name_is -->
<g id="node7" class="node">
<title>[root] output.you_name_is</title>
<polygon fill="none" stroke="#000000" points="895.7676,-252 771.8984,-252 771.8984,-216 901.7676,-216 901.7676,-246 895.7676,-252"/>
<polyline fill="none" stroke="#000000" points="895.7676,-252 895.7676,-246 "/>
<polyline fill="none" stroke="#000000" points="901.7676,-246 895.7676,-246 "/>
<text text-anchor="middle" x="836.833" y="-229.8" font-family="Times,serif" font-size="14.00" fill="#000000">output.you_name_is</text>
</g>
<!-- [root] var.your_name -->
<g id="node13" class="node">
<title>[root] var.your_name</title>
<polygon fill="none" stroke="#000000" points="880.4237,-180 787.2423,-180 787.2423,-144 886.4237,-144 886.4237,-174 880.4237,-180"/>
<polyline fill="none" stroke="#000000" points="880.4237,-180 880.4237,-174 "/>
<polyline fill="none" stroke="#000000" points="886.4237,-174 880.4237,-174 "/>
<text text-anchor="middle" x="836.833" y="-157.8" font-family="Times,serif" font-size="14.00" fill="#000000">var.your_name</text>
</g>
<!-- [root] output.you_name_is&#45;&gt;[root] var.your_name -->
<g id="edge15" class="edge">
<title>[root] output.you_name_is&#45;&gt;[root] var.your_name</title>
<path fill="none" stroke="#000000" d="M836.833,-215.8314C836.833,-208.131 836.833,-198.9743 836.833,-190.4166"/>
<polygon fill="#000000" stroke="#000000" points="840.3331,-190.4132 836.833,-180.4133 833.3331,-190.4133 840.3331,-190.4132"/>
</g>
<!-- [root] var.sub_network_name -->
<g id="node11" class="node">
<title>[root] var.sub_network_name</title>
<polygon fill="none" stroke="#000000" points="1060.0852,-252 919.5808,-252 919.5808,-216 1066.0852,-216 1066.0852,-246 1060.0852,-252"/>
<polyline fill="none" stroke="#000000" points="1060.0852,-252 1060.0852,-246 "/>
<polyline fill="none" stroke="#000000" points="1066.0852,-246 1060.0852,-246 "/>
<text text-anchor="middle" x="992.833" y="-229.8" font-family="Times,serif" font-size="14.00" fill="#000000">var.sub_network_name</text>
</g>
<!-- [root] meta.count&#45;boundary (EachMode fixup) -->
<g id="node14" class="node">
<title>[root] meta.count&#45;boundary (EachMode fixup)</title>
<ellipse fill="none" stroke="#000000" cx="566.833" cy="-306" rx="174.7874" ry="18"/>
<text text-anchor="middle" x="566.833" y="-301.8" font-family="Times,serif" font-size="14.00" fill="#000000">[root] meta.count&#45;boundary (EachMode fixup)</text>
</g>
<!-- [root] meta.count&#45;boundary (EachMode fixup)&#45;&gt;[root] google_compute_instance.firstserver -->
<g id="edge8" class="edge">
<title>[root] meta.count&#45;boundary (EachMode fixup)&#45;&gt;[root] google_compute_instance.firstserver</title>
<path fill="none" stroke="#000000" d="M506.0173,-289.0282C469.3481,-278.7949 422.3637,-265.683 383.4569,-254.8253"/>
<polygon fill="#000000" stroke="#000000" points="384.3234,-251.4334 373.7506,-252.1165 382.4417,-258.1758 384.3234,-251.4334"/>
</g>
<!-- [root] meta.count&#45;boundary (EachMode fixup)&#45;&gt;[root] google_container_cluster.abc -->
<g id="edge9" class="edge">
<title>[root] meta.count&#45;boundary (EachMode fixup)&#45;&gt;[root] google_container_cluster.abc</title>
<path fill="none" stroke="#000000" d="M459.54,-291.7766C386.2998,-281.8067 286.8158,-267.7564 189.6523,-252.1025"/>
<polygon fill="#000000" stroke="#000000" points="190.0815,-248.6265 179.6508,-250.4841 188.9633,-255.5366 190.0815,-248.6265"/>
</g>
<!-- [root] meta.count&#45;boundary (EachMode fixup)&#45;&gt;[root] output.gcp_ip_cidr_range -->
<g id="edge10" class="edge">
<title>[root] meta.count&#45;boundary (EachMode fixup)&#45;&gt;[root] output.gcp_ip_cidr_range</title>
<path fill="none" stroke="#000000" d="M554.4682,-287.8314C548.8822,-279.6232 542.17,-269.7606 536.0258,-260.7323"/>
<polygon fill="#000000" stroke="#000000" points="538.884,-258.7112 530.3643,-252.4133 533.097,-262.6496 538.884,-258.7112"/>
</g>
<!-- [root] meta.count&#45;boundary (EachMode fixup)&#45;&gt;[root] output.sample_output -->
<g id="edge11" class="edge">
<title>[root] meta.count&#45;boundary (EachMode fixup)&#45;&gt;[root] output.sample_output</title>
<path fill="none" stroke="#000000" d="M596.0016,-288.2022C611.2039,-278.9262 629.9921,-267.4623 646.3686,-257.4698"/>
<polygon fill="#000000" stroke="#000000" points="648.467,-260.2896 655.1804,-252.0931 644.8209,-254.3141 648.467,-260.2896"/>
</g>
<!-- [root] meta.count&#45;boundary (EachMode fixup)&#45;&gt;[root] output.you_name_is -->
<g id="edge12" class="edge">
<title>[root] meta.count&#45;boundary (EachMode fixup)&#45;&gt;[root] output.you_name_is</title>
<path fill="none" stroke="#000000" d="M629.7953,-289.2101C669.3227,-278.6694 720.5025,-265.0215 762.0864,-253.9324"/>
<polygon fill="#000000" stroke="#000000" points="763.131,-257.2762 771.8916,-251.3177 761.3274,-250.5126 763.131,-257.2762"/>
</g>
<!-- [root] meta.count&#45;boundary (EachMode fixup)&#45;&gt;[root] var.sub_network_name -->
<g id="edge13" class="edge">
<title>[root] meta.count&#45;boundary (EachMode fixup)&#45;&gt;[root] var.sub_network_name</title>
<path fill="none" stroke="#000000" d="M670.2238,-291.4337C736.1332,-281.7543 823.559,-268.1912 909.6176,-252.1764"/>
<polygon fill="#000000" stroke="#000000" points="910.3756,-255.5954 919.5602,-250.3139 909.0867,-248.715 910.3756,-255.5954"/>
</g>
<!-- [root] provider.google (close) -->
<g id="node15" class="node">
<title>[root] provider.google (close)</title>
<ellipse fill="none" stroke="#000000" cx="259.833" cy="-306" rx="114.4592" ry="18"/>
<text text-anchor="middle" x="259.833" y="-301.8" font-family="Times,serif" font-size="14.00" fill="#000000">[root] provider.google (close)</text>
</g>
<!-- [root] provider.google (close)&#45;&gt;[root] google_compute_instance.firstserver -->
<g id="edge16" class="edge">
<title>[root] provider.google (close)&#45;&gt;[root] google_compute_instance.firstserver</title>
<path fill="none" stroke="#000000" d="M272.1978,-287.8314C277.7839,-279.6232 284.496,-269.7606 290.6402,-260.7323"/>
<polygon fill="#000000" stroke="#000000" points="293.569,-262.6496 296.3018,-252.4133 287.782,-258.7112 293.569,-262.6496"/>
</g>
<!-- [root] provider.google (close)&#45;&gt;[root] google_container_cluster.abc -->
<g id="edge17" class="edge">
<title>[root] provider.google (close)&#45;&gt;[root] google_container_cluster.abc</title>
<path fill="none" stroke="#000000" d="M219.9756,-289.1192C196.6539,-279.2418 166.945,-266.6592 141.8023,-256.0105"/>
<polygon fill="#000000" stroke="#000000" points="142.9856,-252.7108 132.4124,-252.0336 140.2556,-259.1565 142.9856,-252.7108"/>
</g>
<!-- [root] root -->
<g id="node16" class="node">
<title>[root] root</title>
<ellipse fill="none" stroke="#000000" cx="412.833" cy="-378" rx="46.8976" ry="18"/>
<text text-anchor="middle" x="412.833" y="-373.8" font-family="Times,serif" font-size="14.00" fill="#000000">[root] root</text>
</g>
<!-- [root] root&#45;&gt;[root] meta.count&#45;boundary (EachMode fixup) -->
<g id="edge18" class="edge">
<title>[root] root&#45;&gt;[root] meta.count&#45;boundary (EachMode fixup)</title>
<path fill="none" stroke="#000000" d="M442.8913,-363.9468C464.7793,-353.7134 494.8506,-339.6541 519.8911,-327.9469"/>
<polygon fill="#000000" stroke="#000000" points="521.6378,-330.9939 529.2142,-323.588 518.673,-324.6528 521.6378,-330.9939"/>
</g>
<!-- [root] root&#45;&gt;[root] provider.google (close) -->
<g id="edge19" class="edge">
<title>[root] root&#45;&gt;[root] provider.google (close)</title>
<path fill="none" stroke="#000000" d="M382.9699,-363.9468C360.9927,-353.6045 330.7114,-339.3546 305.6778,-327.574"/>
<polygon fill="#000000" stroke="#000000" points="306.9072,-324.2844 296.3687,-323.1932 303.9265,-330.6181 306.9072,-324.2844"/>
</g>
</g>
</svg>
